<svg xmlns="http://www.w3.org/2000/svg" viewBox="0 0 340.8 41"><path fill="#ffb4ab" d="m198.4 10 3.7-.5c.9-.1 1.4-.5 1.8-1.3l1.7-3.4c.3-.6.8-.6 1.1 0l1.7 3.4c.4.8.9 1.2 1.8 1.3l3.8.5c.7.1.8.6.3 1.1l-2.7 2.6c-.6.6-.8 1.2-.7 2.1l.6 3.7c.1.7-.3 1-.9.7l-3.3-1.8c-.8-.4-1.4-.4-2.2 0l-3.3 1.8c-.6.3-1 0-.9-.7l.6-3.7c.1-.9 0-1.5-.7-2.1l-2.7-2.6c-.5-.5-.4-1 .3-1.1z"></path><path fill="#fff" d="m25.5 7.6c0-4.2-3.5-7.6-7.7-7.6h-15.2c-1.1 0-1.9.9-1.9 1.9v22.9c0 1.1.9 1.9 1.9 1.9h15.3c4.2 0 7.5-3.5 7.5-7.6 0-2.2-1-4.3-2.6-5.7 1.7-1.5 2.7-3.5 2.7-5.8m-7.6 15.3h-13.4v-7.6h13.4c2.1 0 3.7 1.7 3.7 3.8s-1.6 3.7-3.7 3.8zm.1-11.5h-13.5v-7.6h13.3c2.1 0 3.8 1.7 3.8 3.8s-1.6 3.7-3.6 3.8z"></path><path fill="#fff" d="m56.3 3.8c1.1 0 1.9-.9 1.9-1.9 0-1.1-.9-1.9-1.9-1.9h-19c-1.1 0-1.9.9-1.9 1.9v22.9c0 1.1.9 1.9 1.9 1.9h19c1.1 0 1.9-.9 1.9-1.9 0-1.1-.9-1.9-1.9-1.9h-17.1v-7.6h13.3c1.1 0 1.9-.9 1.9-1.9 0-1.1-.9-1.9-1.9-1.9h-13.3v-7.7z"></path><path fill="#fff" d="m82.3.9c-.3-.5-1-.9-1.7-.9s-1.3.4-1.6.9l-13.2 22.9c-.2.3-.3.6-.3 1 0 1.1.9 1.9 1.9 1.9s1.5-.8 1.7-1.1l2.6-4.6h17.6l2.7 4.6c.2.3.7 1.1 1.7 1.1 1.1 0 1.9-.9 1.9-1.9 0-.4-.1-.7-.3-1zm-8.3 16.2 6.6-11.4 6.6 11.4z"></path><path fill="#fff" d="m124.1 0c-1.1 0-1.9.9-1.9 1.9v12.4c0 4.7-3.8 8.6-8.6 8.6-4.7 0-8.6-3.8-8.6-8.6v-12.4c0-1.1-.9-1.9-1.9-1.9-1.1 0-1.9.9-1.9 1.9v12.4c0 6.8 5.6 12.4 12.4 12.4s12.4-5.6 12.4-12.4v-12.4c0-1-.9-1.9-1.9-1.9"></path><path fill="#fff" d="m156.6 0h-22.9c-1.1 0-1.9.9-1.9 1.9 0 1.1.9 1.9 1.9 1.9h9.5v20.9c0 1.1.9 1.9 1.9 1.9 1.1 0 1.9-.9 1.9-1.9v-20.9h9.5c1.1 0 1.9-.9 1.9-1.9.1-1-.7-1.9-1.8-1.9"></path><path fill="#fff" d="m189.1 0c-.8 0-1.3.5-1.4.6l-10 10-10-10c-.4-.4-.9-.6-1.4-.6-1.1 0-1.9.9-1.9 1.9 0 .8.5 1.3.6 1.4l10.8 10.8v10.6c0 1.1.9 1.9 1.9 1.9 1.1 0 1.9-.9 1.9-1.9v-10.6l10.8-10.8c.2-.2.6-.6.6-1.4.1-1-.8-1.9-1.9-1.9"></path><path fill="#fff" d="m236.2 11.4c-4.9 0-7.4-1.3-7.4-3.8s2.5-3.8 7.4-3.8c3.4 0 5.6.7 7.4 1.4 1 .4 2.2-.1 2.5-1.1s-.2-2.1-1.2-2.5c-2.3-1-5.8-1.6-8.7-1.6-6.8 0-11.3 3-11.3 7.6 0 4.8 4.2 7.6 11.3 7.6 4.9 0 7.4 1.3 7.4 3.8s-2.5 3.8-7.4 3.8h-1.2c-2.6 0-5-.5-7.5-1.4-.2-.1-.5-.1-.7-.1-.8 0-1.5.5-1.8 1.3-.3 1 .2 2 1.2 2.4 2.3 1 5.8 1.7 8.8 1.7h1.1c6.8 0 11.3-3 11.3-7.6 0-4.8-4.2-7.7-11.2-7.7"></path><path fill="#fff" d="m276.7 0h-22.9c-1.1 0-1.9.9-1.9 1.9 0 1.1.9 1.9 1.9 1.9h9.5v20.9c0 1.1.9 1.9 1.9 1.9 1.1 0 1.9-.9 1.9-1.9v-20.9h9.5c1.1 0 1.9-.9 1.9-1.9.1-1-.8-1.9-1.8-1.9"></path><path fill="#fff" d="m295 .9c-.3-.6-.9-.9-1.7-.9-.7 0-1.3.4-1.7.9l-13.2 22.9c-.2.3-.3.6-.3 1 0 1.1.9 1.9 1.9 1.9s1.5-.8 1.7-1.1l2.6-4.6h17.6l2.7 4.6c.2.3.7 1.1 1.7 1.1 1.1 0 1.9-.9 1.9-1.9 0-.4-.1-.7-.3-1zm-8.3 16.2 6.6-11.4 6.6 11.4z"></path><path fill="#fff" d="m338.4 23.3-6.5-6.5c3.6-1 6.2-4.3 6.2-8.3 0-4.7-3.8-8.5-8.5-8.6h-11.5c-1.1 0-1.9.9-1.9 1.9v22.9c0 1.1.9 1.9 1.9 1.9 1.1 0 1.9-.9 1.9-1.9v-7.6h6.8l8.9 8.9c.2.2.6.6 1.4.6 1.1 0 1.9-.9 1.9-1.9 0-.4-.2-.9-.6-1.4m-18.4-19.5h9.5c2.6 0 4.7 2.1 4.7 4.7s-2.1 4.7-4.7 4.7h-9.5z"></path><g fill="#ffb4ab"><path d="m225.5 40.9h-.3c-.2 0-.4-.2-.4-.4v-6.1c0-.2.2-.4.4-.4h2c1.3 0 2.3 1 2.3 2.3s-1 2.3-2.3 2.3h-1.3v1.9c0 .2-.2.4-.4.4zm.4-3.5h1.2c.6 0 1.2-.5 1.2-1.2 0-.6-.5-1.1-1.2-1.1h-1.2z"></path><path d="m241.2 40.9h-.5c-.2 0-.3-.1-.4-.2l-1.2-2.3h-1.4v2.1c0 .2-.2.4-.4.4h-.4c-.2 0-.4-.2-.4-.4v-6.1c0-.2.2-.4.4-.4h2.4c1.2 0 2.2 1 2.2 2.2 0 .8-.5 1.6-1.3 2l1.1 2.1c.1.1.1.3 0 .4.2.1 0 .2-.1.2zm-3.4-3.6h1.5c.6 0 1.1-.5 1.1-1.1s-.5-1.1-1.1-1.1h-1.5z"></path><path d="m252.2 41c-2 0-3.5-1.5-3.5-3.5s1.6-3.5 3.5-3.5 3.5 1.6 3.5 3.5-1.6 3.5-3.5 3.5zm0-6c-1.3 0-2.4 1.1-2.4 2.4s1.1 2.4 2.4 2.4 2.4-1.1 2.4-2.4-1.1-2.4-2.4-2.4z"></path><path d="m263.8 40.9h-.4c-.2 0-.4-.2-.4-.4v-6.1c0-.2.2-.4.4-.4h3.6c.2 0 .4.2.4.4v.3c0 .2-.2.4-.4.4h-2.9v2.1h2.4c.2 0 .4.2.4.4v.3c0 .2-.2.4-.4.4h-2.4v2.3c.1.1-.1.3-.3.3z"></path><path d="m277.3 41c-1.5 0-2.6-1.1-2.6-2.7v-3.9c0-.2.2-.4.4-.4h.3c.2 0 .4.2.4.4v3.8c0 1 .6 1.6 1.5 1.6s1.5-.6 1.5-1.6v-3.8c0-.2.2-.4.4-.4h.3c.2 0 .4.2.4.4v3.9c0 1.6-1.1 2.7-2.6 2.7z"></path><path d="m291 41h-.2c-.1 0-.3-.1-.4-.3l-1.4-4.1-.7 3.9c0 .2-.2.3-.4.3h-.4c-.1 0-.2 0-.3-.1s-.1-.2-.1-.4l1.2-6.2c0-.2.2-.3.4-.3h.1c.2 0 .3.1.4.3l1.6 4.5 1.6-4.5c0-.1.2-.3.4-.3h.1c.2 0 .3.1.4.3l1.2 6.2c0 .1 0 .3-.1.4s-.2.1-.3.1h-.4c-.2 0-.3-.1-.4-.3l-.7-3.9-1.4 4.1c.1.2-.1.3-.2.3zm-2.1-6.7s0 .1 0 0z"></path><path d="m306 40.9h-3.6c-.2 0-.4-.2-.4-.4v-6.1c0-.2.2-.4.4-.4h3.6c.2 0 .4.2.4.4v.3c0 .2-.2.4-.4.4h-2.9v1.8h2.4c.2 0 .4.2.4.4v.3c0 .2-.2.4-.4.4h-2.4v1.9h2.9c.2 0 .4.2.4.4v.3c0 .1-.2.3-.4.3z"></path><path d="m318.4 40.9h-.5c-.2 0-.3-.1-.4-.2l-1.2-2.3h-1.3v2.1c0 .2-.2.4-.4.4h-.4c-.2 0-.4-.2-.4-.4v-6.1c0-.2.2-.4.4-.4h2.4c1.2 0 2.2 1 2.2 2.2 0 .8-.5 1.6-1.3 2l1.1 2.1c.1.1.1.3 0 .4 0 .1-.1.2-.2.2zm-3.4-3.6h1.5c.6 0 1.1-.5 1.1-1.1s-.5-1.1-1.1-1.1h-1.5z"></path><path d="m327.1 40.9h-.4c-.2 0-.4-.2-.4-.4v-6.1c0-.2.2-.4.4-.4h.4c.2 0 .4.2.4.4v6.1c0 .2-.2.4-.4.4z"></path><path d="m339.3 40.9h-3.6c-.2 0-.4-.2-.4-.4v-6.1c0-.2.2-.4.4-.4h3.6c.2 0 .4.2.4.4v.3c0 .2-.2.4-.4.4h-2.9v1.8h2.4c.2 0 .4.2.4.4v.3c0 .2-.2.4-.4.4h-2.4v1.9h2.9c.2 0 .4.2.4.4v.3c0 .1-.1.3-.4.3z"></path></g></svg>